<svg xmlns="http://www.w3.org/2000/svg" width="1600" height="1100" viewBox="0 0 1600 1100">
  <rect width="1600" height="1100" fill="#07131a"/>
  <rect x="70" y="70" width="1460" height="960" rx="44" fill="#0c1c27" stroke="#22c55e" stroke-width="4"/>
  <rect x="170" y="220" width="420" height="660" rx="42" fill="#f8fafc"/>
  <rect x="210" y="270" width="340" height="34" rx="17" fill="#e2e8f0"/>
  <rect x="210" y="330" width="300" height="20" rx="10" fill="#cbd5e1"/>
  <rect x="210" y="380" width="250" height="18" rx="9" fill="#94a3b8"/>
  <rect x="210" y="450" width="292" height="148" rx="24" fill="#eafaf1"/>
  <circle cx="280" cy="525" r="52" fill="#22c55e" opacity="0.18"/>
  <path d="M248 522h64" stroke="#22c55e" stroke-width="14" stroke-linecap="round"/>
  <path d="M280 486l40 36-40 36" stroke="#25D366" stroke-width="12" stroke-linecap="round" stroke-linejoin="round" fill="none"/>
  <rect x="210" y="640" width="292" height="140" rx="24" fill="#fef3c7"/>
  <rect x="625" y="250" width="760" height="180" rx="30" fill="#11212e"/>
  <rect x="625" y="470" width="300" height="240" rx="30" fill="#183244"/>
  <rect x="955" y="470" width="430" height="240" rx="30" fill="#0e5d40"/>
  <path d="M700 620c90-150 180-220 270-220 90 0 180 60 270 220" stroke="#22c55e" stroke-width="10" fill="none" stroke-linecap="round"/>
  <circle cx="770" cy="565" r="24" fill="#22c55e"/>
  <circle cx="940" cy="530" r="18" fill="#fbbf24"/>
  <circle cx="1080" cy="565" r="22" fill="#ffffff" opacity="0.85"/>
  <path d="M690 310h240" stroke="#ffffff" stroke-width="16" stroke-linecap="round"/>
  <path d="M690 360h180" stroke="#94a3b8" stroke-width="12" stroke-linecap="round"/>
  <text x="655" y="580" fill="#ffffff" font-family="Arial, sans-serif" font-size="28">Pedidos en minutos</text>
  <text x="995" y="570" fill="#ffffff" font-family="Arial, sans-serif" font-size="28">Pagos y soporte</text>
  <circle cx="1380" cy="260" r="64" fill="#25D366" opacity="0.18"/>
  <path d="M1340 260h80" stroke="#25D366" stroke-width="14" stroke-linecap="round"/>
  <path d="M1380 220l34 40-34 40" stroke="#22c55e" stroke-width="12" stroke-linecap="round" stroke-linejoin="round" fill="none"/>
</svg>